<svg xmlns="http://www.w3.org/2000/svg" viewBox="0 0 1051 278" width="1051" height="278">
	<defs>
		<linearGradient id="grd1" gradientUnits="userSpaceOnUse"  x1="170.209" y1="-27.681" x2="315.764" y2="130.531">
			<stop offset="0" stop-color="#1e78c2"  />
			<stop offset="1" stop-color="#3ab5e6"  />
		</linearGradient>
	</defs>
	<style>
		tspan { white-space:pre }
		.shp0 { fill: url(#grd1) } 
		.shp1 { fill: #3ab5e6 } 
	</style>
	<g id="Layer 1">
		<g id="&lt;Group&gt;">
			<path id="&lt;Compound Path&gt;" fill-rule="evenodd" class="shp0" d="M203 92.16L168.63 126.52L180.79 126.52L198.27 109.04C203.17 104.14 211.15 104.14 216.05 109.04C217.59 110.59 218.65 112.44 219.22 114.4L224.58 109.04C229.49 104.14 237.46 104.14 242.36 109.04C244.24 110.92 245.4 113.26 245.84 115.7C247.92 115.12 250.1 114.81 252.34 114.81C265.75 114.81 276.62 125.69 276.62 139.09C276.62 152.5 265.75 163.37 252.34 163.37C250.1 163.37 247.92 163.06 245.84 162.49C245.4 164.93 244.24 167.26 242.36 169.14C237.46 174.04 229.49 174.04 224.58 169.14L219.22 163.78C218.65 165.75 217.59 167.6 216.05 169.14C211.15 174.04 203.17 174.04 198.27 169.14L180.79 151.66L168.63 151.66L203 186.03L233.41 186.03L233.41 234.22L185.22 234.22L185.22 203.81L150.85 169.44L150.85 181.61L168.33 199.08C173.23 203.99 173.23 211.96 168.33 216.86C166.78 218.41 164.93 219.47 162.97 220.04L168.33 225.4C173.23 230.3 173.23 238.28 168.33 243.18C166.45 245.06 164.11 246.22 161.67 246.66C162.25 248.73 162.56 250.92 162.56 253.15C162.56 266.56 151.68 277.43 138.28 277.43C124.87 277.43 114 266.56 114 253.15C114 250.92 114.31 248.73 114.89 246.66C112.45 246.22 110.11 245.06 108.23 243.18C103.33 238.28 103.33 230.3 108.23 225.4L113.59 220.04C111.63 219.47 109.78 218.41 108.23 216.86C103.33 211.96 103.33 203.99 108.23 199.08L125.71 181.61L125.71 169.44L91.34 203.81L91.34 234.22L43.15 234.22L43.15 186.03L73.56 186.03L107.93 151.66L95.77 151.66L78.29 169.14C73.39 174.04 65.41 174.04 60.51 169.14C58.96 167.6 57.91 165.75 57.33 163.78L51.97 169.14C47.07 174.04 39.1 174.04 34.19 169.14C32.31 167.26 31.15 164.93 30.72 162.49C28.64 163.06 26.46 163.37 24.22 163.37C10.81 163.37 -0.06 152.5 -0.06 139.09C-0.06 125.69 10.81 114.81 24.22 114.81C26.46 114.81 28.64 115.12 30.72 115.7C31.15 113.26 32.31 110.93 34.19 109.04C39.1 104.14 47.07 104.14 51.97 109.04L57.33 114.4C57.9 112.44 58.96 110.59 60.51 109.04C65.41 104.14 73.39 104.14 78.29 109.04L95.77 126.52L107.93 126.52L73.56 92.16L43.15 92.16L43.15 43.97L91.34 43.97L91.34 74.38L125.71 108.74L125.71 96.58L108.23 79.1C103.33 74.2 103.33 66.22 108.23 61.32C109.78 59.78 111.63 58.72 113.59 58.15L108.23 52.79C103.33 47.89 103.33 39.91 108.23 35.01C110.11 33.13 112.45 31.97 114.89 31.53C114.31 29.45 114 27.27 114 25.03C114 11.63 124.87 0.75 138.28 0.75C151.68 0.75 162.56 11.63 162.56 25.03C162.56 27.27 162.25 29.45 161.67 31.53C164.11 31.97 166.45 33.13 168.33 35.01C173.23 39.91 173.23 47.89 168.33 52.79L162.97 58.15C164.93 58.72 166.78 59.78 168.33 61.32C173.23 66.22 173.23 74.2 168.33 79.1L150.85 96.58L150.85 108.74L185.22 74.38L185.22 43.97L233.41 43.97L233.41 92.16L203 92.16ZM138.28 106.69C139.56 106.69 140.83 106.77 142.07 106.91L142.07 92.94L162.12 72.89C163.59 71.42 163.59 69.01 162.12 67.53L162.12 67.53C160.65 66.06 158.23 66.06 156.76 67.53L142.07 82.22L142.07 66.63L162.12 46.58C163.59 45.1 163.59 42.69 162.12 41.22L162.12 41.22C160.65 39.74 158.23 39.74 156.76 41.22L142.07 55.91L142.07 40.06C148.8 38.37 153.78 32.28 153.78 25.03C153.78 16.47 146.84 9.53 138.28 9.53C129.72 9.53 122.78 16.47 122.78 25.03C122.78 32.28 127.76 38.37 134.49 40.06L134.49 55.91L119.8 41.22C118.32 39.74 115.91 39.74 114.44 41.22L114.44 41.22C112.96 42.69 112.96 45.1 114.44 46.58L134.49 66.63L134.49 82.22L119.8 67.53C118.32 66.06 115.91 66.06 114.44 67.53L114.44 67.53C112.96 69.01 112.96 71.42 114.44 72.89L134.49 92.94L134.49 106.91C135.73 106.77 137 106.69 138.28 106.69ZM158.35 113.66C160.34 115.23 162.14 117.03 163.71 119.02L199.36 83.38L224.63 83.38L224.63 52.75L194 52.75L194 78.01L158.35 113.66ZM170.46 135.3C170.61 136.55 170.68 137.81 170.68 139.09C170.68 140.38 170.61 141.64 170.46 142.88L184.43 142.88L204.48 162.93C205.95 164.41 208.37 164.41 209.84 162.93L209.84 162.93C211.32 161.46 211.32 159.05 209.84 157.57L195.15 142.88L210.74 142.88L230.79 162.93C232.27 164.41 234.68 164.41 236.15 162.93L236.15 162.93C237.63 161.46 237.63 159.05 236.15 157.57L221.47 142.88L237.31 142.88C239 149.61 245.09 154.59 252.34 154.59C260.9 154.59 267.84 147.65 267.84 139.09C267.84 130.53 260.9 123.59 252.34 123.59C245.09 123.59 239 128.58 237.31 135.3L221.47 135.3L236.15 120.61C237.63 119.14 237.63 116.73 236.15 115.25L236.15 115.25C234.68 113.78 232.27 113.78 230.79 115.25L210.74 135.3L195.15 135.3L209.84 120.61C211.32 119.14 211.32 116.73 209.84 115.25L209.84 115.25C208.37 113.78 205.95 113.78 204.48 115.25L184.43 135.3L170.46 135.3ZM163.71 159.17C162.14 161.16 160.34 162.96 158.35 164.53L194 200.17L194 225.44L224.63 225.44L224.63 194.81L199.36 194.81L163.71 159.17ZM142.07 171.27C140.83 171.42 139.56 171.5 138.28 171.5C137 171.5 135.73 171.42 134.49 171.27L134.49 185.24L114.44 205.29C112.96 206.77 112.96 209.18 114.44 210.65L114.44 210.65C115.91 212.13 118.32 212.13 119.8 210.65L134.49 195.97L134.49 211.56L114.44 231.61C112.96 233.08 112.96 235.49 114.44 236.97L114.44 236.97C115.91 238.44 118.32 238.44 119.8 236.97L134.49 222.28L134.49 238.12C127.76 239.82 122.78 245.9 122.78 253.15C122.78 261.71 129.72 268.65 138.28 268.65C146.84 268.65 153.78 261.71 153.78 253.15C153.78 245.9 148.8 239.82 142.07 238.12L142.07 222.28L156.76 236.97C158.23 238.44 160.65 238.44 162.12 236.97L162.12 236.97C163.59 235.49 163.59 233.08 162.12 231.61L142.07 211.56L142.07 195.97L156.76 210.65C158.23 212.13 160.65 212.13 162.12 210.65L162.12 210.65C163.59 209.18 163.59 206.77 162.12 205.29L142.07 185.24L142.07 171.27ZM118.21 164.53C116.22 162.96 114.42 161.16 112.84 159.17L77.2 194.81L51.93 194.81L51.93 225.44L82.56 225.44L82.56 200.17L118.21 164.53ZM106.1 142.88C105.95 141.64 105.88 140.38 105.88 139.09C105.88 137.81 105.95 136.55 106.1 135.3L92.13 135.3L72.08 115.25C70.6 113.78 68.19 113.78 66.72 115.25L66.72 115.25C65.24 116.73 65.24 119.14 66.72 120.61L81.41 135.3L65.81 135.3L45.76 115.25C44.29 113.78 41.88 113.78 40.4 115.25L40.4 115.25C38.93 116.73 38.93 119.14 40.4 120.61L55.09 135.3L39.25 135.3C37.56 128.58 31.47 123.59 24.22 123.59C15.66 123.59 8.72 130.53 8.72 139.09C8.72 147.65 15.66 154.59 24.22 154.59C31.47 154.59 37.56 149.61 39.25 142.88L55.09 142.88L40.4 157.57C38.93 159.05 38.93 161.46 40.4 162.93L40.4 162.93C41.88 164.41 44.29 164.41 45.76 162.93L65.81 142.88L81.41 142.88L66.72 157.57C65.24 159.05 65.24 161.46 66.72 162.93L66.72 162.93C68.19 164.41 70.6 164.41 72.08 162.93L92.13 142.88L106.1 142.88ZM112.84 119.02C114.42 117.03 116.22 115.23 118.21 113.66L82.56 78.01L82.56 52.75L51.93 52.75L51.93 83.38L77.2 83.38L112.84 119.02ZM31.46 139.09C31.46 143.1 28.22 146.34 24.22 146.34C20.21 146.34 16.97 143.1 16.97 139.09C16.97 135.09 20.21 131.85 24.22 131.85C28.22 131.85 31.46 135.09 31.46 139.09ZM252.34 131.85C256.34 131.85 259.59 135.09 259.59 139.09C259.59 143.1 256.34 146.34 252.34 146.34C248.34 146.34 245.09 143.1 245.09 139.09C245.09 135.09 248.34 131.85 252.34 131.85ZM138.28 245.91C142.28 245.91 145.53 249.15 145.53 253.15C145.53 257.16 142.28 260.4 138.28 260.4C134.28 260.4 131.03 257.16 131.03 253.15C131.03 249.15 134.28 245.91 138.28 245.91ZM131.03 25.03C131.03 21.03 134.28 17.78 138.28 17.78C142.28 17.78 145.53 21.03 145.53 25.03C145.53 29.03 142.28 32.28 138.28 32.28C134.28 32.28 131.03 29.03 131.03 25.03ZM216.59 217.4L202.03 217.4L202.03 202.84L216.59 202.84L216.59 217.4ZM74.53 60.78L74.53 75.34L59.97 75.34L59.97 60.78L74.53 60.78ZM59.97 217.4L59.97 202.84L74.53 202.84L74.53 217.4L59.97 217.4ZM216.59 75.34L202.03 75.34L202.03 60.78L216.59 60.78L216.59 75.34ZM114.66 139.09C114.66 152.14 125.23 162.72 138.28 162.72C151.33 162.72 161.9 152.14 161.9 139.09C161.9 126.05 151.33 115.47 138.28 115.47C125.23 115.47 114.66 126.05 114.66 139.09Z" />
		</g>
		<g id="&lt;Group&gt;">
			<g id="&lt;Group&gt;">
				<path id="&lt;Compound Path&gt;" class="shp1" d="M351.51 121.43C358.08 127.76 364.47 131.13 372.69 131.13C379.62 131.13 384.41 127.76 384.41 122.67C384.41 118 381.39 114.21 368.9 111.55C353.22 108.17 343.81 99.42 343.81 86.69C343.81 72.31 355.35 61.9 372.16 61.9C388.43 61.9 400.98 70.83 402.34 87.58L383.17 87.58C382.34 81.55 378.67 78.11 373.05 78.11C367.48 78.11 363.58 81.01 363.58 85.15C363.58 89.77 366.89 93.44 377.78 95.92C395.47 100.01 404.17 108.53 404.17 121.72C404.17 136.52 392.4 147.58 373.58 147.58C362.69 147.58 352.04 142.2 343.4 130.36L351.51 121.43Z" />
				<path id="&lt;Compound Path&gt;" class="shp1" d="M416.77 63.32L437.3 63.32L465.29 116.52L465.29 63.32L483.51 63.32L483.51 146.16L462.92 146.16L434.93 92.97L434.93 146.16L416.77 146.16L416.77 63.32Z" />
				<path id="&lt;Compound Path&gt;" fill-rule="evenodd" class="shp1" d="M541.26 61.9C566.58 61.9 585.99 80.6 585.99 104.74C585.99 128.88 566.58 147.58 541.26 147.58C515.93 147.58 496.52 128.88 496.52 104.74C496.52 80.6 515.93 61.9 541.26 61.9ZM541.26 130.54C555.34 130.54 566.23 119.42 566.23 104.74C566.23 90.07 555.34 78.94 541.26 78.94C527.17 78.94 516.29 90.07 516.29 104.74C516.29 119.42 527.17 130.54 541.26 130.54Z" />
				<path id="&lt;Compound Path&gt;" class="shp1" d="M656.4 63.32L670.42 119.83L683.44 63.32L703.74 63.32L681.37 146.16L661.43 146.16L646.63 89.89L631.9 146.16L611.96 146.16L589.59 63.32L609.89 63.32L622.9 119.83L636.87 63.32L656.4 63.32Z" />
				<path id="&lt;Compound Path&gt;" class="shp1" d="M714.02 63.32L765.62 63.32L765.62 80.12L733.6 80.12L733.6 97.88L762.77 97.88L762.77 114.68L733.6 114.68L733.6 146.16L714.02 146.16L714.02 63.32Z" />
				<path id="&lt;Compound Path&gt;" class="shp1" d="M778.15 63.32L797.74 63.32L797.74 129.24L829.63 129.24L829.63 146.16L778.15 146.16L778.15 63.32Z" />
				<path id="&lt;Compound Path&gt;" fill-rule="evenodd" class="shp1" d="M883.24 63.32L911.99 146.16L891.52 146.16L886.14 128.88L858.8 128.88L853.41 146.16L832.94 146.16L861.7 63.32L883.24 63.32ZM881.64 113.56L872.47 83.91L863.29 113.56L881.64 113.56Z" />
				<path id="&lt;Compound Path&gt;" class="shp1" d="M983.7 63.32C983.7 84.44 979.09 98.29 969.09 105.39L990.03 146.16L968.67 146.16L950.74 111.01C949.85 111.07 948.91 111.07 947.78 111.07L941.87 111.07L941.87 146.16L922.28 146.16L922.28 63.32L941.87 63.32L941.87 94.21L945.71 94.21C958.79 94.21 964.06 86.4 964.06 63.32L983.7 63.32Z" />
				<path id="&lt;Compound Path&gt;" class="shp1" d="M996.95 63.32L1049.73 63.32L1049.73 79.89L1016.53 79.89L1016.53 96.34L1046.89 96.34L1046.89 112.67L1016.53 112.67L1016.53 129.59L1050.79 129.59L1050.79 146.16L996.95 146.16L996.95 63.32Z" />
			</g>
			<g id="&lt;Group&gt;">
				<path id="&lt;Compound Path&gt;" class="shp1" d="M346.76 182.68L350.52 182.68L350.52 194.98L364.16 194.98L364.16 182.68L367.92 182.68L367.92 210.69L364.16 210.69L364.16 198.24L350.52 198.24L350.52 210.69L346.76 210.69L346.76 182.68Z" />
				<path id="&lt;Compound Path&gt;" fill-rule="evenodd" class="shp1" d="M402.35 196.68C402.35 204.84 395.92 211.17 387.62 211.17C379.32 211.17 372.9 204.84 372.9 196.68C372.9 188.52 379.32 182.2 387.62 182.2C395.92 182.2 402.35 188.52 402.35 196.68ZM398.52 196.68C398.52 190.42 393.7 185.52 387.62 185.52C381.54 185.52 376.72 190.42 376.72 196.68C376.72 202.94 381.54 207.84 387.62 207.84C393.7 207.84 398.52 202.94 398.52 196.68Z" />
				<path id="&lt;Compound Path&gt;" class="shp1" d="M427.38 200.9C427.38 207.1 422.94 211.13 417.22 211.13C411.5 211.13 407.06 207.1 407.06 200.9L407.06 182.68L410.82 182.68L410.82 201.32C410.82 205.22 413.6 207.8 417.22 207.8C420.84 207.8 423.62 205.22 423.62 201.32L423.62 182.68L427.38 182.68L427.38 200.9Z" />
				<path id="&lt;Compound Path&gt;" class="shp1" d="M434.94 204.1C436.76 206.16 439.4 207.84 442.26 207.84C445.9 207.84 448.46 206.02 448.46 203.22C448.46 200.72 446.72 198.8 441.8 197.78C436.04 196.58 433.14 193.76 433.14 189.78C433.14 185.3 436.78 182.2 442.02 182.2C446.78 182.2 451.64 184.68 451.64 190.16L447.82 190.16C447.82 187.14 445.36 185.52 442.2 185.52C439.12 185.52 436.96 187.16 436.96 189.52C436.96 192.06 439.04 193.7 443.38 194.68C449.76 196.12 452.28 198.96 452.28 203.2C452.28 207.84 448.52 211.17 442.44 211.17C438.54 211.17 435.22 209.11 432.96 206.26L434.94 204.1Z" />
				<path id="&lt;Compound Path&gt;" class="shp1" d="M457.36 182.68L473.9 182.68L473.9 185.94L461.12 185.94L461.12 194.98L472.88 194.98L472.88 198.24L461.12 198.24L461.12 207.42L474.26 207.42L474.26 210.69L457.36 210.69L457.36 182.68Z" />
				<path id="&lt;Compound Path&gt;" class="shp1" d="M481.04 204.1C482.86 206.16 485.5 207.84 488.36 207.84C492 207.84 494.56 206.02 494.56 203.22C494.56 200.72 492.82 198.8 487.9 197.78C482.14 196.58 479.24 193.76 479.24 189.78C479.24 185.3 482.88 182.2 488.12 182.2C492.88 182.2 497.74 184.68 497.74 190.16L493.92 190.16C493.92 187.14 491.46 185.52 488.3 185.52C485.22 185.52 483.06 187.16 483.06 189.52C483.06 192.06 485.14 193.7 489.48 194.68C495.86 196.12 498.38 198.96 498.38 203.2C498.38 207.84 494.62 211.17 488.54 211.17C484.64 211.17 481.32 209.11 479.06 206.26L481.04 204.1Z" />
				<path id="&lt;Compound Path&gt;" class="shp1" d="M516.74 180.68L520.2 180.68L520.2 216.29L516.74 216.29L516.74 180.68Z" />
				<path id="&lt;Compound Path&gt;" class="shp1" d="M540.2 182.68L556.34 182.68L556.34 185.94L543.96 185.94L543.96 194.96L555.32 194.96L555.32 198.22L543.96 198.22L543.96 210.69L540.2 210.69L540.2 182.68Z" />
				<path id="&lt;Compound Path&gt;" class="shp1" d="M561.34 182.68L565.1 182.68L565.1 207.42L577.64 207.42L577.64 210.69L561.34 210.69L561.34 182.68Z" />
				<path id="&lt;Compound Path&gt;" fill-rule="evenodd" class="shp1" d="M600.76 210.69L598.16 203.46L586.24 203.46L583.64 210.69L579.54 210.69L590.1 182.68L594.3 182.68L604.86 210.69L600.76 210.69ZM597.04 200.2L592.2 186.84L587.36 200.2L597.04 200.2Z" />
				<path id="&lt;Compound Path&gt;" class="shp1" d="M612.32 185.94L604.46 185.94L604.46 182.68L623.94 182.68L623.94 185.94L616.08 185.94L616.08 210.69L612.32 210.69L612.32 185.94Z" />
				<path id="&lt;Compound Path&gt;" class="shp1" d="M629.44 204.1C631.26 206.16 633.9 207.84 636.76 207.84C640.4 207.84 642.96 206.02 642.96 203.22C642.96 200.72 641.22 198.8 636.3 197.78C630.54 196.58 627.64 193.76 627.64 189.78C627.64 185.3 631.28 182.2 636.52 182.2C641.28 182.2 646.14 184.68 646.14 190.16L642.32 190.16C642.32 187.14 639.86 185.52 636.7 185.52C633.62 185.52 631.46 187.16 631.46 189.52C631.46 192.06 633.54 193.7 637.88 194.68C644.26 196.12 646.78 198.96 646.78 203.2C646.78 207.84 643.02 211.17 636.94 211.17C633.04 211.17 629.72 209.11 627.46 206.26L629.44 204.1Z" />
				<path id="&lt;Compound Path&gt;" class="shp1" d="M665.14 180.68L668.6 180.68L668.6 216.29L665.14 216.29L665.14 180.68Z" />
				<path id="&lt;Compound Path&gt;" fill-rule="evenodd" class="shp1" d="M707.42 210.69L704.82 203.46L692.9 203.46L690.3 210.69L686.2 210.69L696.76 182.68L700.96 182.68L711.52 210.69L707.42 210.69ZM703.7 200.2L698.86 186.84L694.02 200.2L703.7 200.2Z" />
				<path id="&lt;Compound Path&gt;" fill-rule="evenodd" class="shp1" d="M719.6 200.12L719.6 210.69L715.84 210.69L715.84 182.68L724.78 182.68C730.72 182.68 734.4 186.12 734.4 191.4C734.4 196.68 730.72 200.12 724.78 200.12L719.6 200.12ZM724.64 185.94L719.6 185.94L719.6 196.86L724.64 196.86C728.4 196.86 730.58 194.72 730.58 191.4C730.58 188.08 728.4 185.94 724.64 185.94Z" />
				<path id="&lt;Compound Path&gt;" fill-rule="evenodd" class="shp1" d="M756.06 210.69L753.46 203.46L741.54 203.46L738.94 210.69L734.84 210.69L745.4 182.68L749.6 182.68L760.16 210.69L756.06 210.69ZM752.34 200.2L747.5 186.84L742.66 200.2L752.34 200.2Z" />
				<path id="&lt;Compound Path&gt;" fill-rule="evenodd" class="shp1" d="M768.24 200.12L768.24 210.69L764.48 210.69L764.48 182.68L773.42 182.68C779.36 182.68 783.04 186.12 783.04 191.4C783.04 195.88 780.38 199.02 775.98 199.88L783.56 210.69L779.4 210.69L772 200.12L768.24 200.12ZM773.28 185.94L768.24 185.94L768.24 196.86L773.28 196.86C777.04 196.86 779.22 194.72 779.22 191.4C779.22 188.08 777.04 185.94 773.28 185.94Z" />
				<path id="&lt;Compound Path&gt;" class="shp1" d="M793.82 185.94L785.96 185.94L785.96 182.68L805.44 182.68L805.44 185.94L797.58 185.94L797.58 210.69L793.82 210.69L793.82 185.94Z" />
				<path id="&lt;Compound Path&gt;" class="shp1" d="M823.76 207.44L813.68 190.1L813.68 210.69L810.04 210.69L810.04 182.68L813.54 182.68L824.66 201.9L835.78 182.68L839.28 182.68L839.28 210.69L835.64 210.69L835.64 190.1L825.56 207.44L823.76 207.44Z" />
				<path id="&lt;Compound Path&gt;" class="shp1" d="M846 182.68L862.54 182.68L862.54 185.94L849.76 185.94L849.76 194.98L861.52 194.98L861.52 198.24L849.76 198.24L849.76 207.42L862.9 207.42L862.9 210.69L846 210.69L846 182.68Z" />
				<path id="&lt;Compound Path&gt;" class="shp1" d="M868.58 182.68L872.2 182.68L886.2 204.16L886.2 182.68L889.84 182.68L889.84 210.69L886.22 210.69L872.22 189.2L872.22 210.69L868.58 210.69L868.58 182.68Z" />
				<path id="&lt;Compound Path&gt;" class="shp1" d="M902.3 185.94L894.44 185.94L894.44 182.68L913.92 182.68L913.92 185.94L906.06 185.94L906.06 210.69L902.3 210.69L902.3 185.94Z" />
				<path id="&lt;Compound Path&gt;" class="shp1" d="M928.42 198.1C930.24 200.16 932.88 201.84 935.74 201.84C939.38 201.84 941.94 200.02 941.94 197.22C941.94 194.72 940.2 192.8 935.28 191.78C929.52 190.58 926.62 187.76 926.62 183.78C926.62 179.3 930.26 176.2 935.5 176.2C940.26 176.2 945.12 178.68 945.12 184.16L941.3 184.16C941.3 181.14 938.84 179.52 935.68 179.52C932.6 179.52 930.44 181.16 930.44 183.52C930.44 186.06 932.52 187.7 936.86 188.68C943.24 190.12 945.76 192.96 945.76 197.2C945.76 201.84 942 205.17 935.92 205.17C932.02 205.17 928.7 203.11 926.44 200.26L928.42 198.1Z" />
			</g>
		</g>
	</g>
</svg>